<svg xmlns="http://www.w3.org/2000/svg" xmlns:xlink="http://www.w3.org/1999/xlink" width="432" height="294" viewBox="0 0 432 294">
  <defs>
    <clipPath id="clip-path">
      <rect id="Rectangle_11" data-name="Rectangle 11" width="432" height="294" transform="translate(53 110)"/>
    </clipPath>
  </defs>
  <g id="facebbok-feed" transform="translate(-53 -110)" clip-path="url(#clip-path)">
    <g id="Group_3" data-name="Group 3" transform="translate(68.36 5.32)">
      <g id="Group_1" data-name="Group 1" transform="translate(0 254.953)">
        <rect id="Rectangle_1_copy_3" data-name="Rectangle 1 copy 3" width="41.641" height="41.641" fill="#f68220"/>
        <rect id="Rectangle_1_copy_3-2" data-name="Rectangle 1 copy 3" width="41.582" height="41.582" transform="translate(46.064 0.081)" fill="#f68220"/>
        <rect id="Rectangle_1_copy_3-3" data-name="Rectangle 1 copy 3" width="41.582" height="41.582" transform="translate(92.03 0.081)" fill="#f68220"/>
        <rect id="Rectangle_1_copy_4" data-name="Rectangle 1 copy 4" width="41.582" height="41.797" transform="translate(92.03 46.241)" fill="#f68220"/>
        <rect id="Rectangle_1_copy_5" data-name="Rectangle 1 copy 5" width="41.582" height="41.582" transform="translate(0.118 46.456)" fill="#f68220"/>
        <rect id="Rectangle_1_copy_5-2" data-name="Rectangle 1 copy 5" width="41.582" height="41.582" transform="translate(46.064 46.456)" fill="#2c3e7e"/>
        <rect id="Rectangle_1_copy_6" data-name="Rectangle 1 copy 6" width="41.582" height="41.582" transform="translate(0.118 92.208)" fill="#f68220"/>
        <rect id="Rectangle_1_copy_6-2" data-name="Rectangle 1 copy 6" width="41.582" height="41.582" transform="translate(46.064 92.423)" fill="#f68220"/>
        <rect id="Rectangle_1_copy_6-3" data-name="Rectangle 1 copy 6" width="41.582" height="41.582" transform="translate(92.03 92.423)" fill="#f68220"/>
      </g>
      <circle id="Ellipse_1" data-name="Ellipse 1" cx="133" cy="133" r="133" transform="translate(144.64 112.68)" fill="#29a71a"/>
      <path id="Path_1" data-name="Path 1" d="M306.051,252.82h-.007c-17.541-.011-37.657-9.8-55.192-26.859l-.088-.088c-17.059-17.533-26.848-37.649-26.859-55.192,0-6.459,3.308-13.251,9.316-19.129,4.133-4.045,10.234-8.126,14.55-8.126,6.65,0,8.418,3.144,11.1,7.905.652,1.16,1.392,2.474,2.349,4.064.53.878,1.26,1.989,2.033,3.167,4.913,7.483,8,12.717,6.318,17.093-1.324,3.406-4.824,6.2-8.209,8.9a43.455,43.455,0,0,0-3.845,3.3c.614,3.417,5.091,10.651,12.9,18.456s15.021,12.27,18.446,12.894a43.621,43.621,0,0,0,3.28-3.824c2.713-3.4,5.519-6.915,8.936-8.23a7.1,7.1,0,0,1,2.564-.459c3.9,0,8.481,2.809,14.526,6.777,1.177.773,2.29,1.5,3.174,2.036,1.584.953,2.9,1.693,4.058,2.345,4.759,2.679,7.9,4.449,7.9,11.1,0,4.314-4.084,10.415-8.131,14.547-5.877,6-12.666,9.316-19.116,9.32Zm-48.77-33.375c15.6,15.157,33.823,24.212,48.762,24.223,9.034-.011,17.629-11.731,18.1-14.8a7.081,7.081,0,0,0-.067-1.111,29.289,29.289,0,0,0-3.174-1.928c-1.154-.65-2.59-1.458-4.3-2.484-1.038-.626-2.219-1.4-3.471-2.224-2.371-1.556-7.137-4.684-9.167-5.208a35.119,35.119,0,0,0-4.685,5.177c-3.139,3.932-5.851,7.328-9.673,7.343-9.316-.01-22.009-11.983-25.678-15.652s-15.642-16.362-15.652-25.657c0-3.849,3.411-6.571,7.361-9.724a35.308,35.308,0,0,0,5.158-4.661c-.526-2.033-3.651-6.794-5.207-9.162-.822-1.252-1.6-2.433-2.219-3.465-1.03-1.711-1.839-3.148-2.487-4.3a29.118,29.118,0,0,0-1.928-3.174,7.283,7.283,0,0,0-1.111-.067c-3.068.471-14.793,9.064-14.793,18.1.01,14.944,9.065,33.173,24.223,48.77Z" transform="translate(4.869 41.767)" fill="#fff"/>
      <path id="Path_2" data-name="Path 2" d="M132.556,243.307a4.575,4.575,0,0,1-4.293-6.163l15.093-40.8a94.5,94.5,0,0,1-14.6-58.2A89.875,89.875,0,0,1,218.833,55.2a94.24,94.24,0,0,1,67.007,27.958c36.575,36.575,37.3,95.361,1.618,131.048a89.878,89.878,0,0,1-64.029,26.336h0a93.994,93.994,0,0,1-49.783-14.264l-39.308,16.673a4.606,4.606,0,0,1-1.785.359Zm41.527-26.767a4.589,4.589,0,0,1,2.518.753,84.919,84.919,0,0,0,46.829,14.089,80.784,80.784,0,0,0,57.56-23.656c32.116-32.116,31.39-85.1-1.618-118.1a85.156,85.156,0,0,0-60.539-25.276,80.777,80.777,0,0,0-57.565,23.66c-27.688,27.688-31.485,71.932-9.028,105.2a4.573,4.573,0,0,1,.5,4.148l-12.218,33.026L172.3,216.905a4.571,4.571,0,0,1,1.786-.364Z" transform="translate(60.662 93.081)" fill="#fff" stroke="#fff" stroke-width="4"/>
    </g>
  </g>
</svg>
